<?xml version="1.0" encoding="utf-8"?>
<!-- Svg Vector Icons : http://www.onlinewebfonts.com/icon -->
<!DOCTYPE svg PUBLIC "-//W3C//DTD SVG 1.1//EN" "http://www.w3.org/Graphics/SVG/1.1/DTD/svg11.dtd">
<svg version="1.1" xmlns="http://www.w3.org/2000/svg" xmlns:xlink="http://www.w3.org/1999/xlink" x="0px" y="0px" viewBox="0 0 256 256" enable-background="new 0 0 256 256" xml:space="preserve">
<metadata> Svg Vector Icons : http://www.onlinewebfonts.com/icon </metadata>
<g><g><path fill="#000000" d="M245.5,152.6l-11,14.9c-1.1,2.9-4.5,5.2-7.5,5.2L10,172.8l0-7.8l43.9-15.7L51,135.6l-41,21.6l0-7.9l111.4-66.6c0,0,4.3-3,4-2.7c6.7-5.5,22.5-13,45-13.4c14.6-0.2,30.9,6,39.1,12.7c2.3,1.4,4.4,5,4.6,5.4l30,58C246,145.3,246.5,149.7,245.5,152.6z M133.8,117.3L126,99.9c-1.2-2.4-3.1-2.1-4.6-1.3l-62.9,33.1l3.4,14.9l70.4-25.1C133.7,120.6,134.7,119.5,133.8,117.3z M216.8,119.2l-14.7-29.1c-1.4-2.3-3.1-3.9-4.7-4.6c0,0-11.7-7.4-26.3-7c-18.9,0.5-28.2,5.7-28.2,5.7c-3.7,1.7-3.4,4.5-2.6,6.3l14.2,30.6c0.6,1.3,2.4,2.3,4,2.3h54.8h0.3C217.2,123.3,217.5,120.4,216.8,119.2z M223.3,146.9h-53.7c-2.1,0-3.8,1.6-3.8,3.5c0,2,1.7,3.5,3.8,3.5h53.7c2.1,0,3.8-1.6,3.8-3.5C227.1,148.5,225.4,146.9,223.3,146.9z M14.7,179.9h221.8c2.6,0,4.7,2.1,4.7,4.7c0,2.6-2.1,4.7-4.7,4.7H14.7c-2.6,0-4.7-2.1-4.7-4.7C10,182,12.1,179.9,14.7,179.9z"/></g></g>
</svg>